/* XPM */
static char * gs_logo_xpm[] = {
"32 32 294 2",
"  	c None",
". 	c #000000",
"+ 	c #9CA0A2",
"@ 	c #888B8D",
"# 	c #939798",
"$ 	c #95999A",
"% 	c #7F8284",
"& 	c #6B6D6F",
"* 	c #616365",
"= 	c #5B5E5F",
"- 	c #5C5E5E",
"; 	c #626465",
"> 	c #6B6E6F",
", 	c #7F8183",
"' 	c #949799",
") 	c #838688",
"! 	c #A2A6A8",
"~ 	c #FFFFFF",
"{ 	c #A1A4A7",
"] 	c #797C7D",
"^ 	c #6E7173",
"/ 	c #4F5052",
"( 	c #272829",
"_ 	c #040404",
": 	c #050505",
"< 	c #4F5152",
"[ 	c #707375",
"} 	c #7A7D7E",
"| 	c #989B9E",
"1 	c #C9CECF",
"2 	c #6F7173",
"3 	c #515355",
"4 	c #2A2B2B",
"5 	c #282829",
"6 	c #515254",
"7 	c #757879",
"8 	c #B9BEBF",
"9 	c #A0A3A6",
"0 	c #222324",
"a 	c #212222",
"b 	c #515354",
"c 	c #ABAFB1",
"d 	c #8E9394",
"e 	c #3D3E3F",
"f 	c #505050",
"g 	c #777777",
"h 	c #5F5F5F",
"i 	c #101010",
"j 	c #464646",
"k 	c #404040",
"l 	c #090909",
"m 	c #363738",
"n 	c #A9ACAF",
"o 	c #8E9193",
"p 	c #454648",
"q 	c #121212",
"r 	c #D0D0D0",
"s 	c #FCFCFC",
"t 	c #B8B8B8",
"u 	c #CCCCCC",
"v 	c #D4D4D4",
"w 	c #2F3131",
"x 	c #B4B8BB",
"y 	c #94979A",
"z 	c #66696A",
"A 	c #7D7D7D",
"B 	c #494949",
"C 	c #333333",
"D 	c #0D0D0D",
"E 	c #ABABAB",
"F 	c #FAFAFA",
"G 	c #E1E2E1",
"H 	c #515051",
"I 	c #020202",
"J 	c #9E9E9E",
"K 	c #F8F8F8",
"L 	c #E8E8E8",
"M 	c #5C5C5C",
"N 	c #D3D3D3",
"O 	c #DCDCDC",
"P 	c #0C0C0C",
"Q 	c #616161",
"R 	c #686768",
"S 	c #060606",
"T 	c #4D4F50",
"U 	c #D0D5D8",
"V 	c #919496",
"W 	c #1E1F20",
"X 	c #202020",
"Y 	c #E6E6E6",
"Z 	c #C5C5C5",
"` 	c #2A2A2A",
" .	c #4E4E4E",
"..	c #474747",
"+.	c #010101",
"@.	c #B9B9B9",
"#.	c #F6F6F6",
"$.	c #808080",
"%.	c #AAAAAA",
"&.	c #FAFBFA",
"*.	c #9F9F9F",
"=.	c #FDFDFD",
"-.	c #878787",
";.	c #A2A2A2",
">.	c #292929",
",.	c #D2D2D2",
"'.	c #DEDEDE",
").	c #656565",
"!.	c #626262",
"~.	c #141515",
"{.	c #898C8D",
"].	c #787B7D",
"^.	c #262626",
"/.	c #E9E9E9",
"(.	c #AFAFAF",
"_.	c #717171",
":.	c #F1F1F1",
"<.	c #373737",
"[.	c #898989",
"}.	c #585758",
"|.	c #DADADA",
"1.	c #818181",
"2.	c #F0F0F0",
"3.	c #727272",
"4.	c #D1D1D1",
"5.	c #F9F9F9",
"6.	c #E3E3E3",
"7.	c #0A0A0A",
"8.	c #585A5B",
"9.	c #5E6062",
"0.	c #CACACA",
"a.	c #F4F4F4",
"b.	c #4B4B4B",
"c.	c #171717",
"d.	c #343434",
"e.	c #D6D6D6",
"f.	c #5D5D5D",
"g.	c #636363",
"h.	c #1D1C1D",
"i.	c #ECECEC",
"j.	c #E0E0E0",
"k.	c #646464",
"l.	c #272727",
"m.	c #DDDDDD",
"n.	c #ADADAD",
"o.	c #131313",
"p.	c #4C4D4E",
"q.	c #353535",
"r.	c #FBFBFB",
"s.	c #1F1F1F",
"t.	c #BDBDBD",
"u.	c #C9C9C9",
"v.	c #666565",
"w.	c #BFBFBF",
"x.	c #C7C7C7",
"y.	c #868686",
"z.	c #E7E7E7",
"A.	c #676767",
"B.	c #E4E4E4",
"C.	c #565656",
"D.	c #4C4E4F",
"E.	c #787B7C",
"F.	c #7E7E7E",
"G.	c #282828",
"H.	c #8F8F8F",
"I.	c #2B2B2B",
"J.	c #959595",
"K.	c #313131",
"L.	c #6A6A6A",
"M.	c #6E6E6E",
"N.	c #080808",
"O.	c #666666",
"P.	c #9C9C9C",
"Q.	c #2F2F2F",
"R.	c #58595B",
"S.	c #95999B",
"T.	c #1B1B1C",
"U.	c #030100",
"V.	c #010100",
"W.	c #020100",
"X.	c #010000",
"Y.	c #030101",
"Z.	c #171718",
"`.	c #828688",
" +	c #8F9294",
".+	c #646668",
"++	c #0B0602",
"@+	c #773A14",
"#+	c #B1561E",
"$+	c #130904",
"%+	c #653111",
"&+	c #9C4C1B",
"*+	c #773914",
"=+	c #401F0B",
"-+	c #3C1D0B",
";+	c #43200B",
">+	c #43210C",
",+	c #0E0703",
"'+	c #884117",
")+	c #221106",
"!+	c #54290F",
"~+	c #95481A",
"{+	c #934719",
"]+	c #211107",
"^+	c #281408",
"/+	c #030303",
"(+	c #484A4A",
"_+	c #D9DEE1",
":+	c #8E9294",
"<+	c #414343",
"[+	c #020303",
"}+	c #100803",
"|+	c #6B3413",
"1+	c #8B4318",
"2+	c #180C04",
"3+	c #BD5C21",
"4+	c #0C0502",
"5+	c #6A3412",
"6+	c #713713",
"7+	c #663112",
"8+	c #51270E",
"9+	c #361A0A",
"0+	c #C96123",
"a+	c #5A2B10",
"b+	c #743814",
"c+	c #2B1508",
"d+	c #8D4418",
"e+	c #261307",
"f+	c #373839",
"g+	c #AAAFB0",
"h+	c #888C8E",
"i+	c #434546",
"j+	c #080401",
"k+	c #3A1C0A",
"l+	c #7C3C15",
"m+	c #261306",
"n+	c #5B2C10",
"o+	c #633011",
"p+	c #3D1D0B",
"q+	c #5C2C10",
"r+	c #783A15",
"s+	c #221006",
"t+	c #54280F",
"u+	c #653112",
"v+	c #4A240D",
"w+	c #5F2E11",
"x+	c #6E3513",
"y+	c #070402",
"z+	c #050506",
"A+	c #454748",
"B+	c #979B9D",
"C+	c #1C1D1D",
"D+	c #110803",
"E+	c #170B04",
"F+	c #1E0E05",
"G+	c #231106",
"H+	c #090401",
"I+	c #0C0602",
"J+	c #060301",
"K+	c #0A0502",
"L+	c #180B04",
"M+	c #090402",
"N+	c #222323",
"O+	c #96999B",
"P+	c #9A9EA0",
"Q+	c #8B8E90",
"R+	c #5E6162",
"S+	c #181818",
"T+	c #151515",
"U+	c #5C5E5F",
"V+	c #878A8C",
"W+	c #9FA3A5",
"X+	c #A8ACAE",
"Y+	c #9DA1A3",
"Z+	c #737678",
"`+	c #3C3D3F",
" @	c #0C0C0D",
".@	c #0E0E0E",
"+@	c #3C3E3E",
"@@	c #727476",
"#@	c #A5A8AA",
"$@	c #A8ADAF",
"%@	c #C6CBCD",
"&@	c #B3B8BA",
"*@	c #888C8D",
"=@	c #6C6E6F",
"-@	c #5A5C5E",
";@	c #4F5151",
">@	c #484A4B",
",@	c #5A5C5D",
"'@	c #6C6E70",
")@	c #8B8D8F",
"!@	c #B0B4B6",
"~@	c #C5CACC",
". . . . . . . . . . . . . . . . . . . . . . . . . . . . . . . . ",
". . . . . . . . . . . . . . . . . . . . . . . . . . . . . . . . ",
". . . . . . . . . . . . . . . . . . . . . . . . . . . . . . . . ",
". . . . . . . . . . . . . . . . . . . . . . . . . . . . . . . . ",
". . . . . . . . . . . . . . . . . . . . . . . . . . . . . . . . ",
". . . . . . . . . . . . . . . . . . . . . . . . . . . . . . . . ",
". . . . . . . . + @ # $ % & * = - ; > , ' ' ) ! . . . . . . . . ",
". . . . . ~ { ] ^ / ( _ . . . . . . . . : ( < [ } | ~ . . . . . ",
". . . . 1 2 3 4 . . . . . . . . . . . . . . . . 5 6 7 8 . . . . ",
". . . 9 < 0 . . . . . . . . . . . . . . . . . . . . a b c . . . ",
". . d e _ . f g h i . . . . . . . . . . . . . j k . . l m n . . ",
". o p . q r s ~ ~ t q . . . . . . . . . . . . u v . . . . w x . ",
"y z . . t ~ A q B C . D E F G H I l J K L M . N O P Q R S I T U ",
"V W . X Y Z . `  ...+.@.#.$.%.&.X *.=.-.;.~ >.,.'.).~ !.I . ~.{.",
"].. . ^./.(.. _.:.~ <.~ u ).[.#.}.F |.).1.2.3.4.5.6.J S . . 7.8.",
"9.. . . 0.a.b.c.g ~ d.5.e.f.g.g.h.i.j.Q k.Q l.,.K m.n.o.. . +.p.",
"9.. . . q.i.K ,.i.r.s.A ~ t.u.g . v.~ w.x.y.. O z.A.~ B.C.. +.D.",
"E.. . . . c._.*.F.G.+.S f ;.H.I.. : j *.J.K.. L.M.N.O.P.Q.. 7.R.",
"S.T.. . . . . . . U.. V.W.. . . X.V.. . . X.Y.X.. X.. . . . Z.`.",
" +.+. . . . . ++@+#+$+%+&+*+=+-+;+>+,+'+)+!+~+{+]+^+. . . /+(+_+",
". :+<+[+. . . }+|+1+2+3+4+5+6+!+7+8+9+0+a+b+c+d+e+. . . . f+g+. ",
". . h+i+_ . . j+k+l+m+n+o+'+p+q+r+s+t+u+v+8+w+x+y+. . z+A+B+. . ",
". . . o .+C+. . D+E+V.. F+G+H+D+E+. I+. J+K+L+M+. . N+* O+. . . ",
". . . . P+Q+R+S+. . . . . . . . . . . . . . . . T+U+V+W+. . . . ",
". . . . . . X+Y+Z+`+ @. . . . . . . . . . .@+@@@#@$@. . . . . . ",
". . . . . . . . . %@&@*@=@-@;@>@>@< ,@'@)@!@~@. . . . . . . . . ",
". . . . . . . . . . . . . . . . . . . . . . . . . . . . . . . . ",
". . . . . . . . . . . . . . . . . . . . . . . . . . . . . . . . ",
". . . . . . . . . . . . . . . . . . . . . . . . . . . . . . . . ",
". . . . . . . . . . . . . . . . . . . . . . . . . . . . . . . . ",
". . . . . . . . . . . . . . . . . . . . . . . . . . . . . . . . ",
". . . . . . . . . . . . . . . . . . . . . . . . . . . . . . . . "};
